<?xml version="1.0" encoding="utf-8"?>
<!-- Generator: Adobe Illustrator 27.5.0, SVG Export Plug-In . SVG Version: 6.00 Build 0)  -->
<svg version="1.1" xmlns="http://www.w3.org/2000/svg" xmlns:xlink="http://www.w3.org/1999/xlink" x="0px" y="0px"
	 viewBox="0 0 4000 2666.667" style="enable-background:new 0 0 4000 2666.667;" xml:space="preserve">
<g id="Layer_2">
	<g>
		<rect style="fill:#FFFFFF;" width="4000" height="2666.667"/>
	</g>
</g>
<g id="Objects">
	<path style="fill:#DDEBF5;" d="M1961.888,2310.034c695.1-76.411,1656.29-528.316,1537.259-1091.974
		c-86.161-408.005-556.102-327.695-844.892-464.362s-471.109-511.273-866.49-379.547s-290.078,313.356-746.112,546.717
		S717.16,2446.866,1961.888,2310.034z"/>
	<g>
		<g>
			<g style="opacity:0.1;">
				<g>
					<path d="M2708.752,1201.829c-70.463-40.682-152.552-72.206-244.044-93.665c-88.326-20.694-181.55-31.193-277.129-31.207
						c-95.579-0.014-188.685,10.514-276.778,31.238c-91.201,21.459-172.935,52.956-242.94,93.638
						c-70.03,40.697-124.163,88.158-160.912,141.055c-35.489,51.094-53.336,105.045-53.024,160.422
						c0.336,55.363,18.765,109.327,54.805,160.407c28.837,40.855,68.062,78.451,116.85,112.197l-97.774,56.82l-8.842-5.105
						c-12.889-7.441-33.952-7.441-46.757,0l-706.729,410.706c-12.83,7.456-12.736,19.642,0.152,27.083l113.301,65.414
						c12.889,7.441,33.927,7.456,46.757,0l706.729-410.706c12.805-7.442,12.736-19.642-0.152-27.083l-8.842-5.105l97.774-56.82
						c58.417,28.15,123.426,50.733,194.052,67.303c88.327,20.723,181.575,31.236,277.13,31.235
						c95.579-0.015,188.685-10.514,276.803-31.223c91.201-21.459,172.96-52.97,242.99-93.667
						c70.005-40.682,124.113-88.129,160.862-141.026c35.465-51.109,53.311-105.088,52.999-160.437
						c-0.311-55.349-18.765-109.327-54.805-160.436C2833.907,1289.957,2779.24,1242.526,2708.752,1201.829L2708.752,1201.829z"/>
				</g>
			</g>
			<g>
				<g>
					<path style="fill:#B8B8B8;" d="M1692.931,1290.575c-110.72,64.344-166.152,148.724-166.408,233.236l0.411-144.881
						c0.256-84.512,55.688-168.892,166.408-233.236c102.872-59.783,235.783-91.97,371.149-96.56
						c-0.136,48.296-0.275,96.586-0.411,144.881C1928.714,1198.605,1795.803,1230.793,1692.931,1290.575z"/>
				</g>
				<g>
					<path style="fill:#B8B8B8;" d="M2064.08,1194.015c0.136-48.295,0.274-96.586,0.411-144.881
						c157.892-5.354,319.124,26.839,439.924,96.583c112.898,65.182,169.276,150.942,169.017,236.568l-0.411,144.881
						c0.259-85.625-56.119-171.386-169.018-236.568C2383.204,1220.854,2221.972,1188.661,2064.08,1194.015z"/>
				</g>
				<g>
					<path style="fill:#B8B8B8;" d="M2768.962,1382.56l-0.411,144.881c-0.141,49.607-16.351,97.983-48.156,143.818l0.411-144.881
						C2752.611,1480.542,2768.821,1432.167,2768.962,1382.56z"/>
				</g>
				<g>
					<path style="opacity:0.302;fill:#39C4F3;" d="M2673.434,1382.248l-0.411,144.881c-0.24,84.518-55.66,168.906-166.374,233.246
						c-222.908,129.54-586.753,129.542-811.073,0.03c-112.905-65.186-169.295-150.938-169.052-236.558l0.411-144.881
						c-0.243,85.62,56.147,171.372,169.052,236.558c224.32,129.511,588.166,129.51,811.073-0.03
						C2617.774,1551.155,2673.195,1466.766,2673.434,1382.248z"/>
				</g>
				<g style="opacity:0.5;">
					<path style="fill:#66ADDF;" d="M2504.416,1209.796c224.321,129.511,225.507,340.264,2.644,469.778
						c-222.908,129.54-586.753,129.542-811.073,0.03c-224.366-129.538-225.552-340.29-2.644-469.83
						C1916.205,1080.26,2280.05,1080.259,2504.416,1209.796z"/>
				</g>
				<g>
					<path style="fill:#B8B8B8;" d="M1430.98,1523.643l0.411-144.881c-0.002,0.616-0.001,1.233,0.002,1.85
						c0.305,50.302,17.05,99.335,49.818,145.759c26.205,37.118,61.795,71.287,106.148,101.956
						c13.077,9.045,26.917,17.785,41.502,26.206c14.583,8.42,29.723,16.408,45.376,23.953
						c53.072,25.576,112.159,46.07,176.318,61.126c80.254,18.829,164.979,28.381,251.8,28.38
						c86.847-0.013,171.443-9.553,251.507-28.37c82.887-19.485,157.152-48.13,220.783-85.108
						c63.606-36.964,112.791-80.06,146.161-128.137l-0.411,144.881c-33.37,48.076-82.555,91.173-146.161,128.137
						c-63.63,36.978-137.896,65.623-220.783,85.108c-80.064,18.817-164.66,28.356-251.507,28.37
						c-86.821,0-171.546-9.552-251.8-28.38c-64.159-15.056-123.246-35.55-176.318-61.126c-15.653-7.545-30.792-15.533-45.376-23.953
						c-14.586-8.421-28.426-17.162-41.503-26.206c-44.352-30.669-79.943-64.838-106.148-101.956
						c-32.768-46.424-49.513-95.456-49.818-145.759C1430.979,1524.876,1430.979,1524.26,1430.98,1523.643z"/>
				</g>
				<g>
					<g>
						<polygon style="fill:#4D4C4D;" points="1517.909,1770.692 1517.589,1883.566 1449.904,1844.488 1450.224,1731.614 						"/>
					</g>
					<g>
						<polygon style="fill:#3A3B3B;" points="1654.788,1691.402 1654.468,1804.276 1517.589,1883.566 1517.909,1770.692 						"/>
					</g>
					<g>
						<path style="fill:#4D4C4D;" d="M1654.788,1691.402l-136.879,79.289l-67.685-39.078l136.878-79.289
							c10.189,7.046,20.97,13.856,32.333,20.416C1630.796,1679.301,1642.591,1685.525,1654.788,1691.402z"/>
					</g>
				</g>
				<g>
					<path style="fill:#EAEAEA;" d="M2720.806,1526.378c-33.37,48.076-82.555,91.173-146.161,128.137
						c-63.631,36.978-137.896,65.623-220.783,85.108c-80.064,18.817-164.66,28.356-251.507,28.37
						c-86.821,0-171.546-9.552-251.8-28.38c-64.159-15.056-123.246-35.55-176.318-61.126c-15.653-7.545-30.792-15.533-45.376-23.953
						c-14.586-8.421-28.426-17.162-41.502-26.206c-44.353-30.669-79.943-64.838-106.148-101.956
						c-32.768-46.424-49.513-95.456-49.818-145.759c-0.261-50.305,15.932-99.337,48.177-145.762
						c33.39-48.062,82.577-91.186,146.207-128.164c63.606-36.964,137.869-65.581,220.736-85.081
						c80.042-18.829,164.66-28.382,251.482-28.381c86.845,0.011,171.548,9.55,251.824,28.366
						c83.106,19.484,157.694,48.128,221.741,85.106c64.022,36.963,113.692,80.059,147.604,128.135
						c32.746,46.437,49.513,95.482,49.794,145.773C2769.244,1430.895,2753.029,1479.94,2720.806,1526.378z M1695.986,1615.525
						c224.32,129.511,588.164,129.509,811.073-0.031c222.862-129.513,221.676-340.265-2.644-469.776
						c-224.367-129.538-588.211-129.536-811.073-0.023C1470.433,1275.234,1471.62,1485.986,1695.986,1615.525L1695.986,1615.525z"/>
				</g>
				<g style="enable-background:new    ;">
					<g>
						<path style="fill:#E8B02A;" d="M1539.939,1781.738l-0.411,144.881c-0.013,4.433-2.906,8.859-8.686,12.218l0.411-144.881
							C1537.033,1790.597,1539.927,1786.171,1539.939,1781.738z"/>
					</g>
					<g>
						<path style="fill:#F6BB2D;" d="M734.457,2240.194l0.411-144.881c-0.013,4.487,2.936,8.981,8.841,12.39l-0.411,144.882
							C737.393,2249.176,734.444,2244.681,734.457,2240.194z"/>
					</g>
					<g>
						<polygon style="fill:#E8B02A;" points="1531.254,1793.955 1530.843,1938.837 888.704,2312.007 889.115,2167.126 						"/>
					</g>
					<g>
						<polygon style="fill:#F6BB2D;" points="846.632,2167.126 846.221,2312.007 743.298,2252.585 743.708,2107.703 						"/>
					</g>
					<g>
						<path style="fill:#F6BB2D;" d="M889.115,2167.126l-0.411,144.881c-11.657,6.774-30.773,6.761-42.483,0l0.411-144.881
							C858.342,2173.887,877.458,2173.9,889.115,2167.126z"/>
					</g>
					<g>
						<path style="fill:#FFC43B;" d="M1531.115,1769.348c11.711,6.761,11.773,17.846,0.138,24.608l-642.139,373.17
							c-11.657,6.774-30.773,6.761-42.483,0l-102.923-59.423c-11.733-6.774-11.796-17.833-0.138-24.608l642.139-373.17
							c11.635-6.761,30.75-6.775,42.483,0l8.034,4.639l86.878,50.159L1531.115,1769.348z"/>
					</g>
				</g>
			</g>
		</g>
		<g>
			<polygon style="fill:#86BE40;" points="2030.409,1658.362 1590.059,1404.125 2156.221,1077.251 2596.57,1331.489 			"/>
			<polygon style="fill:#E7E7E9;" points="1719.263,1344.057 1602.497,1411.39 1791.359,1520.349 2332.735,1208.727 
				2135.157,1179.671 			"/>
			<polygon style="fill:#9DA0A8;" points="1791.359,1520.349 2332.735,1208.727 2393.163,1214.05 2546.249,1302.43 
				1980.082,1629.307 			"/>
			<polygon style="fill:#9DA0A8;" points="2470.76,1346.016 2395.272,1389.599 2445.6,1418.651 2520.485,1375.416 			"/>
			<g>
				<g>
					<path style="fill:#C59C6D;" d="M2332.011,1459.651c-3.408,1.968-8.933,1.968-12.341,0s-3.408-5.157,0-7.125
						c3.408-1.968,8.933-1.968,12.341,0C2335.419,1454.494,2335.419,1457.683,2332.011,1459.651z"/>
					<rect x="2317.115" y="1395.923" style="fill:#C59C6D;" width="17.452" height="60.165"/>
					<g>
						<path style="fill:#79B54B;" d="M2356.698,1396.236c0,5.13-3.456,9.773-9.025,13.145c-5.581,3.372-13.3,5.462-21.838,5.462
							c-17.04,0-30.851-8.336-30.851-18.608c0-1.663,0.368-3.289,1.057-4.821c3.515-7.944,15.52-13.786,29.794-13.786
							c6.198,0,11.982,1.104,16.815,3.004c6.294,2.47,11.008,6.294,12.991,10.782
							C2356.33,1392.946,2356.698,1394.573,2356.698,1396.236z"/>
						<path style="fill:#79B54B;" d="M2332.236,1284.518c0,1.995-2.506,3.622-5.735,3.824c-0.214,0.012-0.439,0.024-0.665,0.024
							c-3.527,0-6.389-1.722-6.389-3.847c0-2.137,2.862-3.859,6.389-3.859c1.116,0,2.161,0.166,3.076,0.475h0.012
							C2330.894,1281.787,2332.236,1283.057,2332.236,1284.518z"/>
						<polygon style="fill:#79B54B;" points="2356.698,1396.236 2294.985,1396.236 2296.042,1391.415 2319.447,1284.518 
							2332.236,1284.518 2355.641,1391.415 						"/>
					</g>
					<path style="fill:#6FA644;" d="M2356.698,1396.236c0,5.13-3.456,9.773-9.025,13.145l-2.304-13.145l-2.719-15.604l-16.15-92.291
						l-0.665-3.824c0,0,1.425-3.384,3.076-3.384h0.012c1.971,0.653,3.313,1.924,3.313,3.384l23.405,106.896
						C2356.33,1392.946,2356.698,1394.573,2356.698,1396.236z"/>
				</g>
				<g>
					<path style="fill:#C59C6D;" d="M2262.066,1501.696c-3.408,1.967-8.933,1.967-12.341,0c-3.408-1.967-3.408-5.157,0-7.125
						c3.408-1.967,8.933-1.967,12.341,0C2265.473,1496.539,2265.473,1499.729,2262.066,1501.696z"/>
					<rect x="2247.169" y="1437.968" style="fill:#C59C6D;" width="17.452" height="60.165"/>
					<g>
						<path style="fill:#79B54B;" d="M2286.752,1438.281c0,5.13-3.456,9.773-9.025,13.145c-5.581,3.372-13.3,5.462-21.838,5.462
							c-17.04,0-30.851-8.336-30.851-18.608c0-1.662,0.373-3.287,1.057-4.821c3.539-7.934,15.52-13.787,29.794-13.787
							c6.198,0,11.982,1.104,16.815,3.004c6.294,2.47,10.993,6.3,12.991,10.782
							C2286.379,1434.994,2286.752,1436.618,2286.752,1438.281z"/>
						<path style="fill:#79B54B;" d="M2262.29,1326.563c0,1.995-2.505,3.633-5.735,3.824c-0.214,0.013-0.439,0.024-0.665,0.024
							c-3.527,0-6.389-1.722-6.389-3.847c0-2.138,2.862-3.859,6.389-3.859c1.116,0,2.161,0.166,3.076,0.475h0.012
							C2260.948,1323.832,2262.29,1325.103,2262.29,1326.563z"/>
						<polygon style="fill:#79B54B;" points="2286.752,1438.281 2225.039,1438.281 2226.096,1433.46 2249.501,1326.563 
							2262.29,1326.563 2285.695,1433.46 						"/>
					</g>
					<path style="fill:#6FA644;" d="M2286.752,1438.281c0,5.13-3.456,9.773-9.025,13.145l-2.304-13.145l-2.719-15.603l-16.15-92.291
						l-0.665-3.824c0,0,1.425-3.384,3.076-3.384h0.012c1.971,0.653,3.313,1.924,3.313,3.384l23.405,106.896
						C2286.384,1434.991,2286.752,1436.618,2286.752,1438.281z"/>
				</g>
				<g>
					<path style="fill:#C59C6D;" d="M2192.12,1543.741c-3.408,1.968-8.933,1.968-12.341,0c-3.408-1.967-3.408-5.157,0-7.125
						c3.408-1.968,8.933-1.968,12.341,0S2195.528,1541.774,2192.12,1543.741z"/>
					<rect x="2177.223" y="1480.013" style="fill:#C59C6D;" width="17.452" height="60.165"/>
					<g>
						<path style="fill:#79B54B;" d="M2216.806,1480.326c0,5.13-3.456,9.773-9.025,13.145c-5.581,3.372-13.3,5.462-21.838,5.462
							c-17.04,0-30.851-8.336-30.851-18.608c0-1.662,0.373-3.287,1.057-4.821c3.539-7.934,15.52-13.787,29.794-13.787
							c6.199,0,11.982,1.104,16.815,3.004c6.294,2.47,10.993,6.3,12.991,10.782
							C2216.433,1477.039,2216.806,1478.663,2216.806,1480.326z"/>
						<path style="fill:#79B54B;" d="M2192.344,1368.608c0,1.995-2.505,3.634-5.735,3.824c-0.214,0.013-0.439,0.024-0.665,0.024
							c-3.527,0-6.389-1.722-6.389-3.847c0-2.137,2.862-3.859,6.389-3.859c1.116,0,2.161,0.166,3.076,0.475h0.012
							C2191.002,1365.877,2192.344,1367.148,2192.344,1368.608z"/>
						<polygon style="fill:#79B54B;" points="2216.806,1480.326 2155.093,1480.326 2156.15,1475.505 2179.555,1368.608 
							2192.344,1368.608 2215.749,1475.505 						"/>
					</g>
					<path style="fill:#6FA644;" d="M2216.806,1480.326c0,5.13-3.456,9.773-9.025,13.145l-2.304-13.145l-2.719-15.603l-16.15-92.291
						l-0.665-3.824c0,0,1.425-3.384,3.076-3.384h0.012c1.971,0.653,3.313,1.924,3.313,3.384l23.405,106.897
						C2216.438,1477.037,2216.806,1478.663,2216.806,1480.326z"/>
				</g>
				<g>
					<path style="fill:#C59C6D;" d="M2122.174,1585.786c-3.408,1.967-8.933,1.967-12.341,0c-3.408-1.968-3.408-5.157,0-7.125
						s8.933-1.967,12.341,0S2125.582,1583.819,2122.174,1585.786z"/>
					<rect x="2107.278" y="1522.058" style="fill:#C59C6D;" width="17.452" height="60.165"/>
					<g>
						<path style="fill:#79B54B;" d="M2146.86,1522.371c0,5.13-3.456,9.773-9.025,13.145c-5.581,3.372-13.3,5.462-21.838,5.462
							c-17.04,0-30.851-8.336-30.851-18.608c0-1.662,0.373-3.287,1.057-4.821c3.539-7.934,15.52-13.787,29.794-13.787
							c6.199,0,11.982,1.104,16.815,3.004c6.294,2.47,10.993,6.3,12.991,10.782
							C2146.487,1519.084,2146.86,1520.708,2146.86,1522.371z"/>
						<path style="fill:#79B54B;" d="M2122.398,1410.653c0,1.995-2.505,3.633-5.735,3.824c-0.214,0.013-0.439,0.024-0.665,0.024
							c-3.527,0-6.388-1.722-6.388-3.847c0-2.138,2.862-3.859,6.388-3.859c1.116,0,2.161,0.166,3.076,0.475h0.012
							C2121.056,1407.922,2122.398,1409.193,2122.398,1410.653z"/>
						<polygon style="fill:#79B54B;" points="2146.86,1522.371 2085.147,1522.371 2086.204,1517.55 2109.609,1410.653 
							2122.398,1410.653 2145.803,1517.55 						"/>
					</g>
					<path style="fill:#6FA644;" d="M2146.86,1522.371c0,5.13-3.456,9.773-9.025,13.145l-2.304-13.145l-2.719-15.604l-16.15-92.29
						l-0.665-3.824c0,0,1.425-3.384,3.076-3.384h0.012c1.971,0.653,3.313,1.924,3.313,3.384l23.405,106.896
						C2146.492,1519.082,2146.86,1520.708,2146.86,1522.371z"/>
				</g>
				<g>
					<path style="fill:#C59C6D;" d="M2052.228,1627.831c-3.408,1.967-8.933,1.967-12.341,0c-3.408-1.967-3.408-5.157,0-7.125
						s8.933-1.967,12.341,0C2055.636,1622.674,2055.636,1625.864,2052.228,1627.831z"/>
					<rect x="2037.332" y="1564.103" style="fill:#C59C6D;" width="17.452" height="60.165"/>
					<g>
						<path style="fill:#79B54B;" d="M2076.915,1564.416c0,5.13-3.456,9.773-9.025,13.145c-5.581,3.372-13.3,5.462-21.838,5.462
							c-17.04,0-30.851-8.336-30.851-18.608c0-1.662,0.368-3.289,1.057-4.821c3.515-7.944,15.52-13.787,29.794-13.787
							c6.199,0,11.982,1.104,16.815,3.004c6.294,2.47,11.008,6.294,12.991,10.782
							C2076.546,1561.127,2076.915,1562.754,2076.915,1564.416z"/>
						<path style="fill:#79B54B;" d="M2052.452,1452.698c0,1.995-2.505,3.622-5.735,3.824c-0.214,0.012-0.439,0.024-0.665,0.024
							c-3.527,0-6.389-1.722-6.389-3.847c0-2.137,2.862-3.859,6.389-3.859c1.116,0,2.161,0.166,3.076,0.475h0.012
							C2051.111,1449.967,2052.452,1451.238,2052.452,1452.698z"/>
						<polygon style="fill:#79B54B;" points="2076.915,1564.416 2015.201,1564.416 2016.258,1559.595 2039.663,1452.698 
							2052.452,1452.698 2075.858,1559.595 						"/>
					</g>
					<path style="fill:#6FA644;" d="M2076.915,1564.416c0,5.13-3.456,9.773-9.025,13.145l-2.304-13.145l-2.719-15.603l-16.15-92.291
						l-0.665-3.824c0,0,1.425-3.384,3.076-3.384h0.012c1.971,0.653,3.313,1.924,3.313,3.384l23.405,106.897
						C2076.546,1561.127,2076.915,1562.754,2076.915,1564.416z"/>
				</g>
			</g>
			<polygon style="fill:#7BB041;" points="2596.57,1353.28 2596.57,1331.489 2520.485,1375.416 2520.485,1397.208 			"/>
			<polygon style="fill:#93969D;" points="2520.485,1375.416 2445.6,1418.651 2445.6,1440.443 2520.485,1397.208 			"/>
			<polygon style="fill:#7BB041;" points="2445.6,1418.651 2030.409,1658.362 2030.409,1680.154 2445.6,1440.443 			"/>
			<polygon style="fill:#8FC742;" points="1980.082,1629.307 1980.082,1651.098 2030.409,1680.154 2030.409,1658.362 			"/>
			<polygon style="fill:#A6AAB1;" points="1791.359,1520.349 1791.359,1542.137 1980.082,1651.098 1980.082,1629.307 			"/>
			<polygon style="fill:#EEEEEF;" points="1602.497,1411.39 1602.497,1433.098 1791.359,1542.137 1791.359,1520.349 			"/>
			<polygon style="fill:#8FC742;" points="1590.059,1425.917 1590.059,1404.125 1602.497,1411.39 1602.497,1433.098 			"/>
			<g>
				<g>
					<path style="fill:#3F5462;" d="M2530.27,1346.015h-0.012c-0.002,2.891-1.89,5.776-5.712,7.99
						c-3.821,2.208-8.833,3.312-13.845,3.312c-5.012,0-10.024-1.104-13.845-3.312c-3.822-2.214-5.71-5.099-5.712-7.99h-0.012v-0.262
						c0.102-2.804,2.019-5.593,5.724-7.729c3.821-2.208,8.833-3.312,13.845-3.312c5.012,0,10.024,1.104,13.845,3.312
						c3.705,2.136,5.622,4.925,5.724,7.729V1346.015z"/>
					<rect x="2491.132" y="1197.831" style="fill:#3F5462;" width="39.138" height="148.184"/>
					<path style="fill:#374B57;" d="M2530.27,1197.831v148.184h-0.012c-0.002,2.891-1.89,5.776-5.712,7.99
						c-3.821,2.208-8.833,3.312-13.845,3.312v-159.486H2530.27z"/>
				</g>
				<g>
					<path style="fill:#3F5462;" d="M2414.047,1417.201h-0.012c-0.002,2.891-1.89,5.776-5.712,7.99
						c-3.821,2.208-8.833,3.312-13.845,3.312c-5.012,0-10.024-1.104-13.845-3.312c-3.822-2.214-5.71-5.099-5.712-7.99h-0.012v-0.261
						c0.102-2.804,2.019-5.593,5.724-7.729c3.821-2.208,8.833-3.312,13.845-3.312c5.012,0,10.024,1.104,13.845,3.312
						c3.705,2.135,5.622,4.925,5.724,7.729V1417.201z"/>
					<rect x="2374.909" y="1269.017" style="fill:#3F5462;" width="39.138" height="148.184"/>
					<path style="fill:#374B57;" d="M2414.047,1269.017v148.184h-0.012c-0.002,2.891-1.89,5.776-5.712,7.99
						c-3.821,2.208-8.833,3.312-13.845,3.312v-159.486H2414.047z"/>
				</g>
				<g>
					<polygon style="fill:#B2B2B2;" points="2261.01,1074.525 2107.423,985.27 2107.856,1138.035 2261.443,1227.29 					"/>
					<polygon style="fill:#57778A;" points="1872.583,1339.106 1718.996,1249.851 1719.315,1362.359 1872.902,1451.615 					"/>
					<g>
						<path style="fill:#90B2DE;" d="M2245.685,1218.301l-61.322,35.404l-17.927,10.344l-21.138,12.203l-58.562,33.821
							l-17.927,10.344l-11.433,6.61l-11.317,6.523l-16.14,9.327l-43.046,24.843l-4.634,2.673l-109.641,63.312l-0.32-108.944
							c-0.044-13.656,3.472-28.431,9.545-42.581c1.206-2.804,2.499-5.579,3.894-8.31c5.739-11.303,13.046-21.952,21.37-31.031
							c7.133-7.758,15.007-14.368,23.288-19.22c0.16-0.102,0.305-0.189,0.465-0.276l3.196-1.845l22.736-13.133l17.942-10.344
							l43.598-25.177l36.087-20.833l17.942-10.358l172.837-99.791L2245.685,1218.301z"/>
						<g>
							
								<rect x="1853.228" y="1204.005" transform="matrix(0.8661 -0.4999 0.4999 0.8661 -326.3246 1192.8145)" style="fill:#C8DAEC;" width="419.746" height="2.905"/>
						</g>
						<g>
							<g>
								
									<rect x="2217.025" y="1095.161" transform="matrix(1 -0.0031 0.0031 1 -3.58 6.845)" style="fill:#C8DAEC;" width="2.906" height="138.99"/>
							</g>
							<g>
								
									<rect x="2142.57" y="1138.017" transform="matrix(1 -0.0031 0.0031 1 -3.7125 6.6156)" style="fill:#C8DAEC;" width="2.906" height="138.991"/>
							</g>
							<g>
								
									<rect x="2068.115" y="1180.874" transform="matrix(1 -0.0031 0.0031 1 -3.8441 6.3848)" style="fill:#C8DAEC;" width="2.906" height="138.991"/>
							</g>
							<g>
								
									<rect x="1993.66" y="1223.731" transform="matrix(1 -0.0031 0.0031 1 -3.9775 6.157)" style="fill:#C8DAEC;" width="2.906" height="138.991"/>
							</g>
							<g>
								
									<rect x="1919.205" y="1266.588" transform="matrix(1 -0.0031 0.0031 1 -4.1099 5.9276)" style="fill:#C8DAEC;" width="2.906" height="138.991"/>
							</g>
						</g>
					</g>
					<g>
						<defs>
							
								<filter id="Adobe_OpacityMaskFilter" filterUnits="userSpaceOnUse" x="1885.715" y="1221.497" width="160.343" height="148.895">
								<feFlood  style="flood-color:white;flood-opacity:1" result="back"/>
								<feBlend  in="SourceGraphic" in2="back" mode="normal"/>
							</filter>
						</defs>
						<mask maskUnits="userSpaceOnUse" x="1885.715" y="1221.497" width="160.343" height="148.895" id="SVGID_1_">
							<g style="filter:url(#Adobe_OpacityMaskFilter);">
								<defs>
									
										<filter id="Adobe_OpacityMaskFilter_00000171687012646882739090000010413727100744841134_" filterUnits="userSpaceOnUse" x="1885.715" y="1221.497" width="160.343" height="148.895">
										<feFlood  style="flood-color:white;flood-opacity:1" result="back"/>
										<feBlend  in="SourceGraphic" in2="back" mode="normal"/>
									</filter>
								</defs>
								<mask maskUnits="userSpaceOnUse" x="1885.715" y="1221.497" width="160.343" height="148.895" id="SVGID_1_">
									<g style="filter:url(#Adobe_OpacityMaskFilter_00000171687012646882739090000010413727100744841134_);">
									</g>
								</mask>
								
									<linearGradient id="SVGID_00000034054308242350304770000012642917599171822741_" gradientUnits="userSpaceOnUse" x1="1965.8864" y1="1221.4968" x2="1965.8864" y2="1370.3922">
									<stop  offset="0" style="stop-color:#808080"/>
									<stop  offset="0.2685" style="stop-color:#5A5A5A"/>
									<stop  offset="0.7654" style="stop-color:#191919"/>
									<stop  offset="1" style="stop-color:#000000"/>
								</linearGradient>
								<path style="mask:url(#SVGID_1_);fill:url(#SVGID_00000034054308242350304770000012642917599171822741_);" d="
									M2046.058,1333.55l-16.14,9.327l-43.046,24.843l-4.634,2.673l-96.523-96.523c5.739-11.303,13.046-21.952,21.37-31.031
									c7.133-7.758,15.007-14.368,23.288-19.22c0.16-0.102,0.305-0.189,0.465-0.276l3.196-1.845L2046.058,1333.55z"/>
							</g>
						</mask>
						
							<linearGradient id="SVGID_00000114040458036241822980000005016240435385538732_" gradientUnits="userSpaceOnUse" x1="1965.8864" y1="1221.4968" x2="1965.8864" y2="1370.3922">
							<stop  offset="0" style="stop-color:#E0F2F7"/>
							<stop  offset="1" style="stop-color:#E0F2F7"/>
						</linearGradient>
						<path style="fill:url(#SVGID_00000114040458036241822980000005016240435385538732_);" d="M2046.058,1333.55l-16.14,9.327
							l-43.046,24.843l-4.634,2.673l-96.523-96.523c5.739-11.303,13.046-21.952,21.37-31.031
							c7.133-7.758,15.007-14.368,23.288-19.22c0.16-0.102,0.305-0.189,0.465-0.276l3.196-1.845L2046.058,1333.55z"/>
						<defs>
							
								<filter id="Adobe_OpacityMaskFilter_00000158750644905941089360000012157973140534462377_" filterUnits="userSpaceOnUse" x="1956.77" y="1198.02" width="129.966" height="122.397">
								<feFlood  style="flood-color:white;flood-opacity:1" result="back"/>
								<feBlend  in="SourceGraphic" in2="back" mode="normal"/>
							</filter>
						</defs>
						
							<mask maskUnits="userSpaceOnUse" x="1956.77" y="1198.02" width="129.966" height="122.397" id="SVGID_00000016761814646696060340000017692061328033844097_">
							<g style="filter:url(#Adobe_OpacityMaskFilter_00000158750644905941089360000012157973140534462377_);">
								<defs>
									
										<filter id="Adobe_OpacityMaskFilter_00000067942429588152653610000004473239773074522046_" filterUnits="userSpaceOnUse" x="1956.77" y="1198.02" width="129.966" height="122.397">
										<feFlood  style="flood-color:white;flood-opacity:1" result="back"/>
										<feBlend  in="SourceGraphic" in2="back" mode="normal"/>
									</filter>
								</defs>
								
									<mask maskUnits="userSpaceOnUse" x="1956.77" y="1198.02" width="129.966" height="122.397" id="SVGID_00000016761814646696060340000017692061328033844097_">
									<g style="filter:url(#Adobe_OpacityMaskFilter_00000067942429588152653610000004473239773074522046_);">
									</g>
								</mask>
								
									<linearGradient id="SVGID_00000055692214436661327800000016827744669367334058_" gradientUnits="userSpaceOnUse" x1="2021.7531" y1="1198.0199" x2="2021.7531" y2="1320.4167">
									<stop  offset="0" style="stop-color:#808080"/>
									<stop  offset="0.2685" style="stop-color:#5A5A5A"/>
									<stop  offset="0.7654" style="stop-color:#191919"/>
									<stop  offset="1" style="stop-color:#000000"/>
								</linearGradient>
								
									<polygon style="mask:url(#SVGID_00000016761814646696060340000017692061328033844097_);fill:url(#SVGID_00000055692214436661327800000016827744669367334058_);" points="
									2086.736,1310.073 2068.809,1320.417 1956.77,1208.364 1974.712,1198.02 								"/>
							</g>
						</mask>
						
							<linearGradient id="SVGID_00000107562594444558891330000013903665761717929648_" gradientUnits="userSpaceOnUse" x1="2021.7531" y1="1198.0199" x2="2021.7531" y2="1320.4167">
							<stop  offset="0" style="stop-color:#E0F2F7"/>
							<stop  offset="1" style="stop-color:#E0F2F7"/>
						</linearGradient>
						<polygon style="fill:url(#SVGID_00000107562594444558891330000013903665761717929648_);" points="2086.736,1310.073 
							2068.809,1320.417 1956.77,1208.364 1974.712,1198.02 						"/>
						<defs>
							
								<filter id="Adobe_OpacityMaskFilter_00000006708058640983116620000002041859796240344232_" filterUnits="userSpaceOnUse" x="2054.397" y="1141.652" width="129.966" height="122.397">
								<feFlood  style="flood-color:white;flood-opacity:1" result="back"/>
								<feBlend  in="SourceGraphic" in2="back" mode="normal"/>
							</filter>
						</defs>
						
							<mask maskUnits="userSpaceOnUse" x="2054.397" y="1141.652" width="129.966" height="122.397" id="SVGID_00000002351748012600078970000009728526297657167289_">
							<g style="filter:url(#Adobe_OpacityMaskFilter_00000006708058640983116620000002041859796240344232_);">
								<defs>
									
										<filter id="Adobe_OpacityMaskFilter_00000013903415854090658550000005413854038391299203_" filterUnits="userSpaceOnUse" x="2054.397" y="1141.652" width="129.966" height="122.397">
										<feFlood  style="flood-color:white;flood-opacity:1" result="back"/>
										<feBlend  in="SourceGraphic" in2="back" mode="normal"/>
									</filter>
								</defs>
								
									<mask maskUnits="userSpaceOnUse" x="2054.397" y="1141.652" width="129.966" height="122.397" id="SVGID_00000002351748012600078970000009728526297657167289_">
									<g style="filter:url(#Adobe_OpacityMaskFilter_00000013903415854090658550000005413854038391299203_);">
									</g>
								</mask>
								
									<linearGradient id="SVGID_00000078045989436333768440000016684804399808077494_" gradientUnits="userSpaceOnUse" x1="2119.3799" y1="1141.652" x2="2119.3799" y2="1264.0487">
									<stop  offset="0" style="stop-color:#808080"/>
									<stop  offset="0.2685" style="stop-color:#5A5A5A"/>
									<stop  offset="0.7654" style="stop-color:#191919"/>
									<stop  offset="1" style="stop-color:#000000"/>
								</linearGradient>
								
									<polygon style="mask:url(#SVGID_00000002351748012600078970000009728526297657167289_);fill:url(#SVGID_00000078045989436333768440000016684804399808077494_);" points="
									2184.363,1253.705 2166.435,1264.049 2054.397,1152.01 2072.339,1141.652 								"/>
							</g>
						</mask>
						
							<linearGradient id="SVGID_00000102514933847339953470000018198903650117816767_" gradientUnits="userSpaceOnUse" x1="2119.3799" y1="1141.652" x2="2119.3799" y2="1264.0487">
							<stop  offset="0" style="stop-color:#E0F2F7"/>
							<stop  offset="1" style="stop-color:#E0F2F7"/>
						</linearGradient>
						<polygon style="fill:url(#SVGID_00000102514933847339953470000018198903650117816767_);" points="2184.363,1253.705 
							2166.435,1264.049 2054.397,1152.01 2072.339,1141.652 						"/>
					</g>
					<polygon style="fill:#445C6C;" points="2276.422,1047.83 2122.835,958.576 1769.337,1162.668 1922.923,1251.923 					"/>
					<g style="enable-background:new    ;">
						<path style="fill:#57778A;" d="M1718.991,1249.855l153.588,89.244c0-0.755,0.015-1.511,0.029-2.266
							c0.029-0.814,0.073-1.627,0.116-2.441c0.058-0.814,0.116-1.642,0.203-2.455c0.073-0.828,0.16-1.642,0.276-2.47
							c0.102-0.843,0.218-1.7,0.349-2.542c0.145-0.843,0.291-1.7,0.45-2.557c0.16-0.872,0.334-1.743,0.538-2.63
							c0.189-0.872,0.392-1.758,0.61-2.644s0.45-1.787,0.697-2.673s0.508-1.787,0.784-2.673c0.261-0.872,0.552-1.743,0.843-2.615
							c0.291-0.857,0.581-1.714,0.886-2.572c0.305-0.828,0.61-1.642,0.93-2.47c0.32-0.814,0.654-1.642,0.988-2.455
							c0.334-0.799,0.683-1.598,1.031-2.412c0.363-0.814,0.741-1.627,1.119-2.426c0.421-0.901,0.843-1.787,1.293-2.673
							c0.509-1.017,1.017-2.019,1.555-3.022c0.799-1.496,1.642-2.978,2.499-4.445c1.191-2.019,2.441-4.024,3.748-5.971
							c1.031-1.54,2.092-3.065,3.196-4.547c0.726-1.002,1.482-1.99,2.237-2.949c0.639-0.814,1.293-1.613,1.947-2.412
							c0.654-0.77,1.293-1.54,1.961-2.281c0.639-0.741,1.293-1.467,1.961-2.179c0.683-0.741,1.366-1.453,2.063-2.165
							c0.712-0.712,1.409-1.424,2.135-2.107c0.726-0.697,1.467-1.395,2.223-2.063c0.741-0.668,1.482-1.322,2.237-1.961
							c0.741-0.625,1.496-1.235,2.252-1.831c0.726-0.581,1.467-1.148,2.208-1.7c0.726-0.523,1.467-1.046,2.194-1.554
							c0.712-0.494,1.438-0.959,2.15-1.424c0.712-0.45,1.424-0.886,2.136-1.307c0.174-0.087,0.334-0.189,0.494-0.291
							l-153.588-89.244c-0.16,0.087-0.32,0.189-0.494,0.291c-0.712,0.421-1.424,0.857-2.135,1.307
							c-0.712,0.45-1.438,0.93-2.136,1.409c-0.741,0.508-1.482,1.031-2.208,1.569c-0.741,0.537-1.482,1.104-2.208,1.685
							c-0.755,0.596-1.511,1.206-2.252,1.83c-0.755,0.639-1.496,1.293-2.237,1.961c-0.755,0.668-1.496,1.366-2.223,2.063
							c-0.726,0.697-1.424,1.395-2.136,2.106c-0.697,0.712-1.38,1.438-2.063,2.165c-0.668,0.712-1.322,1.438-1.961,2.179
							c-0.668,0.755-1.307,1.511-1.961,2.281c-0.654,0.799-1.307,1.598-1.947,2.412c-0.755,0.973-1.511,1.947-2.237,2.949
							c-1.104,1.482-2.165,3.007-3.196,4.547c-1.307,1.961-2.557,3.952-3.748,5.971c-0.857,1.467-1.7,2.949-2.499,4.446
							c-0.523,1.002-1.046,2.005-1.555,3.022c-0.45,0.886-0.872,1.772-1.293,2.673c-0.378,0.813-0.755,1.627-1.119,2.441
							c-0.349,0.799-0.697,1.598-1.031,2.397c-0.334,0.828-0.668,1.641-0.973,2.455c-0.334,0.828-0.639,1.656-0.93,2.484
							c-0.32,0.843-0.61,1.714-0.901,2.571c-0.291,0.872-0.567,1.729-0.843,2.6c-0.276,0.901-0.523,1.787-0.77,2.673
							c-0.261,0.901-0.494,1.787-0.712,2.673c-0.218,0.886-0.421,1.772-0.61,2.644c-0.203,0.886-0.378,1.758-0.538,2.644
							c-0.16,0.843-0.305,1.7-0.436,2.542c-0.145,0.857-0.261,1.7-0.363,2.542c-0.116,0.828-0.203,1.656-0.276,2.47
							c-0.087,0.828-0.145,1.642-0.203,2.455c-0.044,0.814-0.087,1.627-0.116,2.441
							C1719.006,1248.33,1718.991,1249.1,1718.991,1249.855z"/>
					</g>
					<path style="fill:#374B57;" d="M1922.923,1251.923c-27.891,16.103-50.432,55.144-50.341,87.183l0.319,112.509l15.462-8.927
						l-0.319-112.509c-0.063-22.233,15.571-49.312,34.929-60.488l338.036-195.166l0.433,152.765l15.462-8.927l-0.484-170.532
						L1922.923,1251.923z"/>
				</g>
				<g>
					<path style="fill:#374B57;" d="M2096.179,941.381c-1.174-1.157-2.315-2.374-3.418-3.642c-0.87-1-1.717-2.032-2.539-3.092
						c-0.714-0.921-1.409-1.863-2.083-2.824c-0.622-0.886-1.226-1.788-1.811-2.704c-0.556-0.87-1.095-1.753-1.617-2.647
						c-0.507-0.869-0.997-1.748-1.469-2.636c-0.468-0.879-0.917-1.767-1.349-2.661c-0.434-0.899-0.848-1.805-1.243-2.716
						c-0.404-0.931-0.787-1.868-1.148-2.808c-0.377-0.981-0.731-1.967-1.06-2.954c-0.354-1.062-0.679-2.126-0.974-3.19
						c-0.333-1.199-0.626-2.397-0.88-3.591c-0.309-1.455-0.559-2.904-0.745-4.34c-0.269-2.073-0.406-4.121-0.4-6.125v0l0.179-63.075
						c0.028-9.872,3.512-16.819,9.132-20.085l-153.587,89.255c-5.62,3.266-9.104,10.212-9.132,20.085l-0.179,63.075v0
						c-0.006,2.004,0.131,4.052,0.4,6.125c0.186,1.437,0.436,2.886,0.745,4.34c0.254,1.195,0.548,2.393,0.88,3.592
						c0.295,1.064,0.62,2.128,0.974,3.19c0.329,0.987,0.682,1.972,1.06,2.954c0.361,0.94,0.745,1.877,1.148,2.808
						c0.395,0.911,0.81,1.817,1.243,2.716c0.431,0.894,0.881,1.782,1.349,2.661c0.472,0.887,0.962,1.767,1.469,2.636
						c0.521,0.893,1.061,1.776,1.617,2.647c0.585,0.916,1.189,1.818,1.811,2.704c0.674,0.961,1.369,1.903,2.083,2.824
						c0.822,1.06,1.669,2.092,2.539,3.092c1.104,1.268,2.245,2.485,3.418,3.642c3.268,3.222,6.787,5.981,10.457,8.099
						l153.587-89.255C2102.966,947.361,2099.446,944.602,2096.179,941.381z"/>
					<path style="fill:#445C6C;" d="M1953.049,1038.735l153.587-89.255l420.89,243.177c1.488,0.859,2.951,1.585,4.384,2.181
						c1.254,0.522,2.484,0.945,3.686,1.271c0.936,0.254,1.855,0.45,2.755,0.589c0.793,0.122,1.572,0.2,2.334,0.234
						c0.705,0.031,1.396,0.026,2.072-0.017c0.645-0.04,1.276-0.114,1.892-0.221c0.601-0.104,1.187-0.239,1.758-0.405
						c0.566-0.164,1.118-0.359,1.654-0.583c0.54-0.226,1.065-0.482,1.572-0.768c0.057-0.032,0.115-0.065,0.172-0.098
						l-153.587,89.255c-0.057,0.033-0.114,0.066-0.171,0.098c-0.507,0.286-1.031,0.542-1.572,0.768
						c-0.535,0.224-1.087,0.419-1.653,0.583c-0.571,0.166-1.157,0.301-1.758,0.405c-0.616,0.107-1.247,0.181-1.891,0.221
						c-0.676,0.043-1.367,0.048-2.072,0.017c-0.762-0.034-1.541-0.112-2.334-0.234c-0.9-0.139-1.819-0.334-2.755-0.589
						c-1.202-0.327-2.432-0.749-3.686-1.271c-1.433-0.596-2.896-1.322-4.384-2.181l0,0L1953.049,1038.735z"/>
					<path style="fill:#9FBBE0;" d="M2414.062,1185.206l-0.218,80.847c-0.029,9.4-4.257,15.298-10.634,16.474
						c-3.734,0.697-8.208-0.218-13.017-2.993l-116.731-67.235l-131.288-75.617l-74.702-43.017l-24.407-14.063l-31.903-18.378
						l-48.61-27.995c-13.002-7.496-23.535-25.758-23.491-40.692l0.218-80.847c0.044-12.814,7.86-19.09,18.305-15.85
						c1.714,0.523,3.501,1.322,5.346,2.383l26.281,15.138l24.407,14.063l74.702,43.017l131.273,75.617l131.564,75.763l39.414,22.707
						C2403.573,1152.025,2414.105,1170.286,2414.062,1185.206z"/>
					<path style="fill:#C8DAEC;" d="M1952.375,900.811c2.234,0,4.878,0.845,7.653,2.447l427.64,246.296
						c11.196,6.464,20.623,22.785,20.587,35.641l-0.229,80.843c-0.009,3.278-0.737,10.903-7.281,10.903
						c-2.234,0-4.878-0.845-7.653-2.447l-427.64-246.296c-11.196-6.464-20.623-22.785-20.587-35.641l0.229-80.843
						C1945.103,908.436,1945.831,900.811,1952.375,900.811z M1952.375,895c-7.729,0-13.063,6.118-13.092,16.698l-0.229,80.843
						c-0.042,14.932,10.497,33.188,23.492,40.69l427.645,246.299c3.788,2.187,7.374,3.223,10.553,3.223
						c7.729,0,13.063-6.118,13.092-16.698l0.229-80.843c0.042-14.932-10.497-33.188-23.492-40.69l-427.645-246.299
						C1959.141,896.036,1955.555,895,1952.375,895L1952.375,895z"/>
					<defs>
						
							<filter id="Adobe_OpacityMaskFilter_00000152958337774517427810000017720657376461862061_" filterUnits="userSpaceOnUse" x="1957.584" y="895.842" width="85.481" height="183.762">
							<feFlood  style="flood-color:white;flood-opacity:1" result="back"/>
							<feBlend  in="SourceGraphic" in2="back" mode="normal"/>
						</filter>
					</defs>
					
						<mask maskUnits="userSpaceOnUse" x="1957.584" y="895.842" width="85.481" height="183.762" id="SVGID_00000124870378819482880240000002242298559918920882_">
						<g style="filter:url(#Adobe_OpacityMaskFilter_00000152958337774517427810000017720657376461862061_);">
							<defs>
								
									<filter id="Adobe_OpacityMaskFilter_00000041997710138171882380000018388901205480836253_" filterUnits="userSpaceOnUse" x="1957.584" y="895.842" width="85.481" height="183.762">
									<feFlood  style="flood-color:white;flood-opacity:1" result="back"/>
									<feBlend  in="SourceGraphic" in2="back" mode="normal"/>
								</filter>
							</defs>
							
								<mask maskUnits="userSpaceOnUse" x="1957.584" y="895.842" width="85.481" height="183.762" id="SVGID_00000124870378819482880240000002242298559918920882_">
								<g style="filter:url(#Adobe_OpacityMaskFilter_00000041997710138171882380000018388901205480836253_);">
								</g>
							</mask>
							
								<linearGradient id="SVGID_00000124878646168723446110000003680898322374597766_" gradientUnits="userSpaceOnUse" x1="2000.3246" y1="895.8417" x2="2000.3246" y2="1079.6038">
								<stop  offset="0" style="stop-color:#808080"/>
								<stop  offset="0.2685" style="stop-color:#5A5A5A"/>
								<stop  offset="0.7654" style="stop-color:#191919"/>
								<stop  offset="1" style="stop-color:#000000"/>
							</linearGradient>
							
								<path style="mask:url(#SVGID_00000124870378819482880240000002242298559918920882_);fill:url(#SVGID_00000124878646168723446110000003680898322374597766_);" d="
								M2043.065,1079.604l-31.903-18.378l-53.579-165.384c1.714,0.523,3.501,1.322,5.346,2.383l26.281,15.138L2043.065,1079.604z"
								/>
						</g>
					</mask>
					
						<linearGradient id="SVGID_00000010296838842107761770000004452140243383054986_" gradientUnits="userSpaceOnUse" x1="2000.3246" y1="895.8417" x2="2000.3246" y2="1079.6038">
						<stop  offset="0" style="stop-color:#E0F2F7"/>
						<stop  offset="1" style="stop-color:#E0F2F7"/>
					</linearGradient>
					<path style="fill:url(#SVGID_00000010296838842107761770000004452140243383054986_);" d="M2043.065,1079.604l-31.903-18.378
						l-53.579-165.384c1.714,0.523,3.501,1.322,5.346,2.383l26.281,15.138L2043.065,1079.604z"/>
					<defs>
						
							<filter id="Adobe_OpacityMaskFilter_00000129911570213321530670000001736318067313122965_" filterUnits="userSpaceOnUse" x="2013.618" y="927.425" width="128.557" height="209.258">
							<feFlood  style="flood-color:white;flood-opacity:1" result="back"/>
							<feBlend  in="SourceGraphic" in2="back" mode="normal"/>
						</filter>
					</defs>
					
						<mask maskUnits="userSpaceOnUse" x="2013.618" y="927.425" width="128.557" height="209.258" id="SVGID_00000000902123895938580000000013034485103904074407_">
						<g style="filter:url(#Adobe_OpacityMaskFilter_00000129911570213321530670000001736318067313122965_);">
							<defs>
								
									<filter id="Adobe_OpacityMaskFilter_00000162315671563480409310000017645755378733933725_" filterUnits="userSpaceOnUse" x="2013.618" y="927.425" width="128.557" height="209.258">
									<feFlood  style="flood-color:white;flood-opacity:1" result="back"/>
									<feBlend  in="SourceGraphic" in2="back" mode="normal"/>
								</filter>
							</defs>
							
								<mask maskUnits="userSpaceOnUse" x="2013.618" y="927.425" width="128.557" height="209.258" id="SVGID_00000000902123895938580000000013034485103904074407_">
								<g style="filter:url(#Adobe_OpacityMaskFilter_00000162315671563480409310000017645755378733933725_);">
								</g>
							</mask>
							
								<linearGradient id="SVGID_00000060004353287946300580000009013031642239672760_" gradientUnits="userSpaceOnUse" x1="2077.8958" y1="927.4251" x2="2077.8958" y2="1136.6835">
								<stop  offset="0" style="stop-color:#808080"/>
								<stop  offset="0.2685" style="stop-color:#5A5A5A"/>
								<stop  offset="0.7654" style="stop-color:#191919"/>
								<stop  offset="1" style="stop-color:#000000"/>
							</linearGradient>
							
								<polygon style="mask:url(#SVGID_00000000902123895938580000000013034485103904074407_);fill:url(#SVGID_00000060004353287946300580000009013031642239672760_);" points="
								2142.174,1136.683 2067.472,1093.667 2013.618,927.425 2088.319,970.442 							"/>
						</g>
					</mask>
					
						<linearGradient id="SVGID_00000167391643602118677320000012098538707935359155_" gradientUnits="userSpaceOnUse" x1="2077.8958" y1="927.4251" x2="2077.8958" y2="1136.6835">
						<stop  offset="0" style="stop-color:#E0F2F7"/>
						<stop  offset="1" style="stop-color:#E0F2F7"/>
					</linearGradient>
					<polygon style="fill:url(#SVGID_00000167391643602118677320000012098538707935359155_);" points="2142.174,1136.683 
						2067.472,1093.667 2013.618,927.425 2088.319,970.442 					"/>
					<defs>
						
							<filter id="Adobe_OpacityMaskFilter_00000092447140294070650810000012085096856221588890_" filterUnits="userSpaceOnUse" x="2219.593" y="1046.059" width="183.617" height="236.693">
							<feFlood  style="flood-color:white;flood-opacity:1" result="back"/>
							<feBlend  in="SourceGraphic" in2="back" mode="normal"/>
						</filter>
					</defs>
					
						<mask maskUnits="userSpaceOnUse" x="2219.593" y="1046.059" width="183.617" height="236.693" id="SVGID_00000077284317261599154350000015669468723791090082_">
						<g style="filter:url(#Adobe_OpacityMaskFilter_00000092447140294070650810000012085096856221588890_);">
							<defs>
								
									<filter id="Adobe_OpacityMaskFilter_00000121963431820173735380000002944253154538420638_" filterUnits="userSpaceOnUse" x="2219.593" y="1046.059" width="183.617" height="236.693">
									<feFlood  style="flood-color:white;flood-opacity:1" result="back"/>
									<feBlend  in="SourceGraphic" in2="back" mode="normal"/>
								</filter>
							</defs>
							
								<mask maskUnits="userSpaceOnUse" x="2219.593" y="1046.059" width="183.617" height="236.693" id="SVGID_00000077284317261599154350000015669468723791090082_">
								<g style="filter:url(#Adobe_OpacityMaskFilter_00000121963431820173735380000002944253154538420638_);">
								</g>
							</mask>
							
								<linearGradient id="SVGID_00000047781408457653893220000011420971021882525075_" gradientUnits="userSpaceOnUse" x1="2311.4011" y1="1046.0591" x2="2311.4011" y2="1282.7518">
								<stop  offset="0" style="stop-color:#808080"/>
								<stop  offset="0.2685" style="stop-color:#5A5A5A"/>
								<stop  offset="0.7654" style="stop-color:#191919"/>
								<stop  offset="1" style="stop-color:#000000"/>
							</linearGradient>
							
								<path style="mask:url(#SVGID_00000077284317261599154350000015669468723791090082_);fill:url(#SVGID_00000047781408457653893220000011420971021882525075_);" d="
								M2403.209,1282.528c-3.734,0.697-8.208-0.218-13.017-2.993l-116.731-67.235l-53.869-166.242l131.564,75.763
								L2403.209,1282.528z"/>
						</g>
					</mask>
					
						<linearGradient id="SVGID_00000142167341087560207490000013595467757227070081_" gradientUnits="userSpaceOnUse" x1="2311.4011" y1="1046.0591" x2="2311.4011" y2="1282.7518">
						<stop  offset="0" style="stop-color:#E0F2F7"/>
						<stop  offset="1" style="stop-color:#E0F2F7"/>
					</linearGradient>
					<path style="fill:url(#SVGID_00000142167341087560207490000013595467757227070081_);" d="M2403.209,1282.528
						c-3.734,0.697-8.208-0.218-13.017-2.993l-116.731-67.235l-53.869-166.242l131.564,75.763L2403.209,1282.528z"/>
					<g>
						
							<rect x="2174.603" y="777.244" transform="matrix(0.4991 -0.8665 0.8665 0.4991 181.2859 2410.8154)" style="fill:#C8DAEC;" width="2.905" height="542.695"/>
					</g>
					<g>
						<g>
							<rect x="1975.494" y="933.902" style="fill:#C8DAEC;" width="2.906" height="104.123"/>
						</g>
						<g>
							<rect x="2074.283" y="990.924" style="fill:#C8DAEC;" width="2.906" height="104.123"/>
						</g>
						<g>
							<rect x="2173.072" y="1047.946" style="fill:#C8DAEC;" width="2.905" height="104.123"/>
						</g>
						<g>
							<rect x="2271.861" y="1104.967" style="fill:#C8DAEC;" width="2.906" height="104.123"/>
						</g>
						<g>
							<rect x="2370.65" y="1161.988" style="fill:#C8DAEC;" width="2.905" height="104.123"/>
						</g>
					</g>
					<path style="fill:#374B57;" d="M2420.978,1209.871l-0.179,63.075c-0.042,14.743-5.245,25.116-13.638,29.994l153.587-89.255
						c8.394-4.878,13.597-15.252,13.639-29.994l0.179-63.075L2420.978,1209.871z"/>
					<path style="fill:#445C6C;" d="M2107.069,796.715l-153.587,89.255c-2.222-1.283-4.407-2.366-6.547-3.257
						c-1.872-0.779-3.71-1.411-5.505-1.898c-1.398-0.38-2.77-0.672-4.114-0.879c-1.185-0.183-2.348-0.299-3.486-0.35
						c-1.053-0.047-2.085-0.039-3.094,0.025c-0.963,0.061-1.905,0.171-2.825,0.33c-0.897,0.155-1.772,0.357-2.625,0.605
						c-0.846,0.246-1.669,0.536-2.469,0.871c-0.807,0.338-1.59,0.721-2.348,1.148c-0.086,0.048-0.171,0.097-0.256,0.146
						l153.587-89.255c0.085-0.049,0.171-0.098,0.256-0.146c0.758-0.427,1.541-0.81,2.348-1.148c0.8-0.335,1.624-0.625,2.469-0.871
						c0.853-0.248,1.729-0.45,2.625-0.605c0.92-0.159,1.862-0.27,2.825-0.33c1.009-0.063,2.041-0.072,3.094-0.025
						c1.138,0.051,2.301,0.167,3.486,0.35c1.344,0.207,2.716,0.499,4.114,0.879c1.795,0.488,3.633,1.119,5.505,1.898
						C2102.662,794.349,2104.847,795.432,2107.069,796.715z M2107.069,796.715l-153.587,89.255l420.89,243.177l153.587-89.255
						L2107.069,796.715z"/>
					<path style="fill:#57778A;" d="M2374.372,1129.147c25.833,14.914,46.69,51.051,46.606,80.724l-0.179,63.075
						c-0.084,29.673-21.078,41.647-46.91,26.733l-420.89-243.177c-25.823-14.909-46.69-51.051-46.606-80.724l0.179-63.075
						c0.084-29.673,21.087-41.642,46.91-26.733L2374.372,1129.147z M1921.855,984.706c-0.056,19.856,13.904,44.048,31.194,54.03
						l420.89,243.177c17.29,9.982,31.351,1.969,31.407-17.887l0.179-63.075c0.056-19.867-13.914-44.064-31.203-54.046
						l-420.89-243.177c-17.289-9.982-31.341-1.964-31.397,17.903L1921.855,984.706z"/>
					<path style="fill:#3F5462;" d="M2527.959,1039.892c5.484,3.166,10.744,7.289,15.626,12.103
						c1.754,1.729,3.458,3.547,5.108,5.442c1.3,1.494,2.566,3.036,3.793,4.619c1.066,1.376,2.104,2.784,3.111,4.219
						c0.929,1.324,1.831,2.672,2.706,4.04c0.831,1.3,1.637,2.619,2.415,3.954c0.758,1.298,1.49,2.611,2.194,3.937
						c0.698,1.314,1.371,2.64,2.015,3.975c0.648,1.343,1.267,2.697,1.857,4.057c0.603,1.391,1.175,2.79,1.715,4.195
						c0.563,1.466,1.092,2.938,1.583,4.413c0.528,1.586,1.014,3.176,1.455,4.765c0.497,1.791,0.936,3.581,1.315,5.366
						c0.462,2.173,0.835,4.339,1.114,6.485c0.402,3.098,0.607,6.159,0.598,9.154l-153.587,89.255
						c0.008-2.995-0.196-6.056-0.598-9.154c-0.278-2.147-0.651-4.312-1.114-6.485c-0.379-1.785-0.819-3.575-1.316-5.366
						c-0.44-1.589-0.926-3.179-1.455-4.765c-0.491-1.475-1.02-2.947-1.583-4.413c-0.54-1.404-1.112-2.803-1.715-4.195
						c-0.59-1.361-1.209-2.714-1.857-4.057c-0.644-1.336-1.316-2.662-2.014-3.975c-0.705-1.326-1.437-2.639-2.194-3.937
						c-0.779-1.335-1.584-2.653-2.415-3.954c-0.874-1.368-1.777-2.715-2.706-4.04c-1.007-1.435-2.045-2.843-3.111-4.219
						c-1.228-1.584-2.493-3.125-3.793-4.62c-1.649-1.895-3.354-3.713-5.108-5.442c-4.883-4.814-10.143-8.937-15.626-12.103
						L2527.959,1039.892z"/>
				</g>
			</g>
		</g>
	</g>
	<g>
		<ellipse style="opacity:0.1;" cx="1134.205" cy="1486.259" rx="54.805" ry="19.559"/>
		<g>
			<path style="fill:#FBC3B1;" d="M1135.866,1162.61c6.941,1.463,13.785,1.63,14.23,11.414c0.445,9.783-0.889,30.535-10.524,25.495
				c-9.635-5.04-17.936-11.149-18.38-22.25C1120.747,1166.168,1128.835,1161.128,1135.866,1162.61z"/>
			<polygon style="fill:#FBC3B1;" points="1136.471,1213.028 1142.361,1193.119 1124.387,1187.69 1119.969,1213.028 			"/>
			<path style="fill:#C667A8;" d="M1116.869,1206.005c-2.798-2.218-12.383,7.318-15.339,13.228
				c-2.955,5.91-14.213,23.359-12.946,36.728c1.266,13.368,26.174,20.827,26.174,20.827l7.036-12.806L1116.869,1206.005z"/>
			<path style="fill:#FBC3B1;" d="M1159.445,1485.92c-5.505-2.819-11.702-7.879-13.384-11.635l-2.251,11.256h-4.135l-2.808-16.327
				c0,0-5.071-5.438,0-15.178v-0.011c0,0,2.808-21.397-0.568-33.778c-3.377-12.381-8.247-27.203-2.808-38.838l-1.126-17.452
				l19.124,9.573c-0.178,0.568-0.88,11.79-1.07,12.916c-0.189,1.125-0.992,61.383,0.145,66.631c0.579,2.73,3.644,9.406,6.987,15.424
				c3.087,5.572,6.408,10.598,8.214,11.412C1169.509,1481.596,1164.939,1488.729,1159.445,1485.92z"/>
			<path style="fill:#FBC3B1;" d="M1134.616,1476.726c-8.013-1.917-16.148-14.877-16.148-14.877l-1.761,14.877h-2.875l-3.198-19.513
				c-3.689-8.002,0.479-13.763,0.479-13.763c0.791-7.678,0-40.309-1.281-50.227c-1.282-9.918,4.636-19.046,4.636-19.046v-14.554
				l17.441-1.761c0,0-0.646,16.962-1.594,23.514c-0.947,6.564-7.143,65.484-7.143,65.484c1.404,5.795,6.687,12.637,11.434,17.92
				c3.912,4.346,7.455,7.634,8.18,8.425C1144.389,1474.966,1142.629,1478.643,1134.616,1476.726z"/>
			<path style="fill:#2C53A5;" d="M1134.616,1476.726c-8.013-1.917-16.148-14.877-16.148-14.877s-1.493-3.109-7.834-4.636
				c-3.689-8.002,0.479-13.763,0.479-13.763s3.667-0.736,5.784,2.106c2.106,2.853,8.826,17.731,14.153,18.745
				c1.103,0.212,2.318,0.368,3.555,0.479c3.912,4.346,7.455,7.634,8.18,8.425
				C1144.389,1474.966,1142.629,1478.643,1134.616,1476.726z"/>
			<path style="fill:#234180;" d="M1118.468,1461.849l-1.761,14.877h-2.875l-3.198-19.513
				C1116.974,1458.74,1118.468,1461.849,1118.468,1461.849z"/>
			<g>
				<path style="fill:#2C53A5;" d="M1159.445,1485.92c-5.505-2.819-11.702-7.879-13.384-11.635l-2.251,11.256h-4.135l-2.808-16.327
					c0,0-5.071-5.438,0-15.178c2.452,0.513,6.141,1.627,7.623,4.469c1.928,3.711,5.305,11.033,9.941,11.033
					c1.092,0,2.151-0.412,3.12-1.036c3.087,5.572,6.408,10.598,8.214,11.412C1169.509,1481.596,1164.939,1488.729,1159.445,1485.92z
					"/>
				<path style="fill:#234180;" d="M1146.061,1474.286l-2.251,11.256h-4.135l-2.808-16.327
					C1136.867,1469.215,1142.662,1469.817,1146.061,1474.286z"/>
			</g>
			<path style="fill:#173760;" d="M1104.828,1273.9c0,0-6.203,13.336-2.41,24.443c3.793,11.108,12.753,46.597,10.575,65.561
				c0,0,12.924,13.546,38.831,12.462c0,0,18.193-56.809-1.655-87.599L1104.828,1273.9z"/>
			<path style="fill:#B1519F;" d="M1129.107,1205.155c6.462,2.462,25.507,14.322,28.371,18.277
				c2.864,3.956-2.319,20.187-4.228,28.78c-1.91,8.593-3.976,33.009-3.079,36.555s-19.29,6.411-31.702-2.592
				c-12.412-9.002-13.64-12.276-13.64-12.276s-1.364-21.824,0.955-44.057C1108.101,1207.611,1111.921,1198.608,1129.107,1205.155z"
				/>
			<path style="fill:#C667A8;" d="M1161.473,1239.074c-0.981,4.926-7.879,29.265-6.185,39.117c0.557,3.232,2.062,8.224,3.845,13.641
				c-6.52,3.198-11.122,4.146-14.042,4.324c-2.084-5.037-3.655-10.688-3.878-16.694c-0.702-18.578,2.819-39.83,5.906-47.007
				c3.098-7.166,6.842-9.974,10.888-7.868C1161.652,1226.492,1162.465,1234.149,1161.473,1239.074z"/>
			<path style="fill:#FBC3B1;" d="M1161.418,1339.685c-4.725,0.145-5.706-3.377-4.725-9.852c0.981-6.464,2.396-7.455,0.568-12.091
				c-1.248-3.143-7.823-11.044-12.17-21.586c2.92-0.178,7.522-1.126,14.042-4.324c3.655,11.111,8.492,23.96,8.681,26.891
				C1168.093,1323.08,1166.143,1339.551,1161.418,1339.685z"/>
			<path style="fill:#52260F;" d="M1151.771,1167.775c0.432,3.405-1.74,10.713-5.128,14.925c-3.388,4.212-7.6,19.686-4.578,25.821
				c0,0-6.409-7.691-7.6-17.305c0,0,1.465,20.327-6.959,20.327c-8.424,0-15.932-3.388-14.284-12.544
				c1.648-9.156,7.05-11.995,7.05-11.995s-11.354-7.691-3.937-23.165C1123.752,1148.363,1150.214,1155.505,1151.771,1167.775z"/>
		</g>
	</g>
	<g>
		<ellipse style="opacity:0.1;" cx="1884.843" cy="2245.339" rx="52.248" ry="18.646"/>
		<path style="fill:#663017;" d="M1855.851,2231.12c0,0-2.551,11.41-1.559,13.536c0.992,2.126,6.733,5.882,13.182,5.315
			c6.449-0.567,15.025-6.378,19.56-6.591s14.883-7.654,8.788-11.41c-6.095-3.756-18.781,0.283-25.938-2.906L1855.851,2231.12z"/>
		<path style="fill:#712C19;" d="M1851.822,2071.342c0,0-3.613,8.671-4.095,24.328c-0.482,15.656,8.671,56.363,8.671,56.363
			s-5.799,12.043-4.345,19.029c1.454,6.985,6.031,39.984,5.308,46.969c-0.723,6.985-2.168,13.729-2.168,13.729
			s13.861,5.283,21.528-1.445l14.602-86.954l-4.576-69.37L1851.822,2071.342z"/>
		<path style="fill:#663017;" d="M1879.605,2234.326c0,0-3.566,10.083-2.767,13.342c0.799,3.259,4.611,7.009,9.96,7.255
			c5.349,0.246,8.792-3.259,11.559-3.197c2.767,0.062,23.117,5.042,26.929-11.128c0,0,0.307-3.566-4.181-4.304
			c-4.488-0.738-21.089,0-23.671-2.582L1879.605,2234.326z"/>
		<path style="fill:#852F1B;" d="M1913.193,2078.574c0,0,5.555,11.308-2.381,86.691c0,0-0.595,33.129-9.919,70.622
			c0,0-13.093,6.943-21.822-1.388c0,0,2.976-21.623,2.38-25.988s-7.538-31.939,3.174-42.651c0,0-8.133-35.51-9.919-40.469
			c-1.785-4.959-12.329-22.438-9.24-40.579L1913.193,2078.574z"/>
		<path style="fill:#FBC3B1;" d="M1917.511,1996.064c0,0,8.331-2.041,12.272-9.317l-9.916-7.336l-7.667,8.327L1917.511,1996.064z"/>
		<path style="fill:#F69365;" d="M1895.829,1995.148l14.876-8.088c0,0,6.282,1.937,6.806,9.004l-11.91,12.303
			C1905.601,2008.367,1902.287,1998.289,1895.829,1995.148z"/>
		<path style="fill:#383838;" d="M1918.194,1983.183l43.901,27.381c0.874,0.545,2.029,0.174,2.421-0.779l15.547-37.767
			c0.319-0.774,0.013-1.664-0.714-2.079l-46.115-26.36c-0.897-0.513-2.039-0.094-2.392,0.878l-13.333,36.746
			C1917.242,1981.942,1917.527,1982.767,1918.194,1983.183z"/>
		<path style="fill:#CBEBF8;" d="M1932.659,1946.459l-12.758,34.76c-0.145,0.395,0.007,0.838,0.364,1.061l41.086,25.674
			c0.469,0.293,1.088,0.094,1.298-0.417l14.624-35.63c0.169-0.412,0.007-0.885-0.379-1.108l-42.952-24.804
			C1933.463,1945.718,1932.85,1945.94,1932.659,1946.459z"/>
		<path style="fill:#FBC3B1;" d="M1910.705,1987.06l2.311-9.422c0,0,3.074-3.809,5.279-4.076c2.205-0.267,8.753-0.468,8.619,0.668
			s-3.111,2.806-8.104,3.875c0,0,2.224,6.414,1.355,9.421c-0.869,3.007-2.655,8.538-2.655,8.538S1914.475,1989.132,1910.705,1987.06
			z"/>
		<path style="fill:#FBC3B1;" d="M1887.689,1932.615c5.447,1.349,10.62,5.31,10.873,10.873c0.253,5.563-0.632,28.319-4.046,28.951
			c-3.414,0.632-15.171-6.574-19.343-14.033C1871.001,1950.947,1873.909,1929.202,1887.689,1932.615z"/>
		<path style="fill:#FBC3B1;" d="M1862.696,1961.425l1.298,19.714c0,0,6.166,5.517,23.203,4.138c0,0,0.057-6.085,1.002-9.167
			c0.945-3.083,4.596-9.472,4.596-9.472S1871.539,1958.667,1862.696,1961.425z"/>
		<path style="fill:#F58551;" d="M1871.819,1979.229c0,0-13.609-8.431-20.354-7.587c-6.744,0.843-14.452,18.186-12.525,31.073
			s10.598,30.712,10.358,37.095s-2.409,31.073-0.241,33.241c2.168,2.168,9.635,12.766,31.193,15.416s32.759-4.215,34.325-8.792
			c1.566-4.577-0.843-15.536-2.288-18.788c-1.445-3.252-5.42-20.595-3.131-35.047c2.288-14.453,2.703-28.297-15.028-38.778
			L1871.819,1979.229z"/>
		<path style="fill:#784E46;" d="M1858.377,1940.615c0,0-0.885-7.52,7.166-10.793c8.051-3.274,24.595-6.017,32.469,2.432
			c0,0,3.185,3.672-7.785,8.361c0,0-0.708,2.743,2.035,6.635c2.743,3.893-2.561,6.511-3.539,9.29
			c-0.978,2.778-4.158,16.633-8.67,16.633c-4.512,0-17.429-1.858-18.313-3.45C1860.855,1968.13,1847.495,1947.427,1858.377,1940.615
			z"/>
		<path style="fill:#FBC3B1;" d="M1891.554,1954.417c0,0-0.619-5.22-4.777-3.716c-4.158,1.504-0.885,8.582,3.008,9.82
			L1891.554,1954.417z"/>
		<path style="fill:#F5AA87;" d="M1859.567,1977.168l2.99-4.351c0,0,2.933,7.587,32.424,8.198c0,0,1.221,0.794,0.733,2.015
			s-1.588,4.03-1.588,4.03s-2.703-0.76-4.291-0.638C1888.248,1986.544,1866.406,1988.587,1859.567,1977.168z"/>
		<path style="fill:#FBC3B1;" d="M1950.246,2010.703c0,0-1.175-8.019,0-11.487s3.52-4.385,4.438-6.935
			c0.918-2.549,2.244-13.971,4.691-13.869c2.448,0.102,0.918,11.932,2.04,13.359c1.122,1.428,8.26,7.852,7.954,10.096
			c-0.306,2.244-1.326,7.778-3.059,8.835c-1.734,1.057-6.759,7.788-6.759,7.788S1954.68,2013.419,1950.246,2010.703z"/>
		<path style="fill:#F69365;" d="M1896.699,2005.105c6.07-6.658,11.683-4.868,14.238-1.217c2.556,3.651,20.445,33.345,20.445,33.345
			s10.588-20.08,18.863-26.53c0,0,9.005,2.677,9.857,6.937c0.852,4.259-18.376,42.594-23.244,42.472
			c-4.868-0.122-8.154,2.069-16.551-5.476c-8.397-7.545-20.968-27.868-24.479-34.805
			C1892.318,2012.894,1895.534,2006.383,1896.699,2005.105z"/>
	</g>
	<g>
		<ellipse style="opacity:0.1;" cx="2778.633" cy="1075.324" rx="53.142" ry="18.966"/>
		<g>
			<path style="fill:#FBC3B1;" d="M2749.336,1070.707c5.904,3.821,18.229-8.681,21.177-18.75l1.045,12.503h2.255
				c0,0,1.331-15.005,0.796-24.024c-0.134-2.255-0.382-4.133-0.796-5.312c0,0,0.032-0.535,0.083-1.516
				c0.427-8.076,2.153-46.405-2.337-64.812c0,0,8.675-59.729,4.165-82.887l-25.081-2.624c0,0-5.993,37.96,1.127,88.479
				c5.471,38.87,7.662,55.952,8.299,63.971c0.191,2.401,0.242,3.993,0.204,5.115c-0.089,2.439-4.337,9.006-7.802,15.413
				C2749.05,1062.612,2746.4,1068.803,2749.336,1070.707z"/>
			<path style="fill:#543A17;" d="M2751.769,971.764c5.471,38.87,7.662,55.952,8.299,63.971c8.292,0.465,12.095-0.885,13.827-2.127
				c0.427-8.076,2.153-46.405-2.337-64.812c0,0,8.675-59.729,4.165-82.887l-25.081-2.624
				C2750.642,883.285,2744.649,921.245,2751.769,971.764z"/>
			<path style="fill:#453017;" d="M2749.336,1070.707c5.904,3.821,18.229-8.681,21.177-18.75l1.045,12.503h2.255
				c0,0,1.331-15.005,0.796-24.024c-1.07,0.427-2.337,1.548-3.21,4.318c-1.796,5.732-6.216,14.732-10.229,14.98
				c-2.165,0.134-5.987-1.293-8.7-3.471C2749.05,1062.612,2746.4,1068.803,2749.336,1070.707z"/>
			<path style="fill:#FBC3B1;" d="M2793.34,1073.107c0.932-2.968,2.032-5.902,2.993-8.306c0.076-1.783,0.16-3.149,0.375-3.824
				c1.172-3.664,2.23-7.812,0.409-13.592c-2.58,1.826-7.707,4.039-15.49,1.122c0.426,4.245,0.426,8.036-0.447,12.572
				c0.831,3.099-0.923,7.686-1.522,12.028C2778.934,1078.377,2791.16,1080.072,2793.34,1073.107z"/>
			<path style="fill:#453017;" d="M2780.659,1089.439c14.999,1.847,15.311-16.139,15.674-24.635
				c-0.961,2.401-2.063,5.337-2.993,8.305c-2.178,6.961-14.407,5.267-13.681,0c0.599-4.344,2.35-8.93,1.522-12.031
				c-0.516,2.688-1.337,5.643-2.548,9.108C2773.252,1085.535,2780.659,1089.439,2780.659,1089.439z"/>
			<path style="fill:#63441A;" d="M2763.373,887.666c0,0,2.496,70.327,3.263,85.678c0.755,15.35,10.401,42.139,12.711,59.163
				c0.911,6.708,1.83,11.598,2.281,16c7.783,2.917,12.909,0.704,15.49-1.122c-0.122-0.396-0.257-0.797-0.409-1.206
				c-2.374-6.421-1.813-41.582-1.72-48.838c0.097-7.252-5.093-20.646-5.093-20.646s6.392-27.91,9.229-43.821
				c2.833-15.903-1.535-38.825-1.535-38.825C2781.59,894.015,2763.373,887.666,2763.373,887.666z"/>
			<path style="fill:#DD67A7;" d="M2756.518,816.354c-3.236,5.701-9.51,33.364-12.161,36.95
				c-2.65,3.586-19.644,24.165-19.644,24.165s4.989,3.274,6.392,7.328c0,0,21.983-15.435,25.413-23.542
				c3.43-8.107,10.29-28.687,11.849-39.288C2769.925,811.365,2759.792,810.585,2756.518,816.354z"/>
			<path style="fill:#FBC3B1;" d="M2724.713,877.469c0,0-15.067-1.566-15.646,0.367c-0.58,1.933,7.538,3.865,7.538,3.865
				s-10.952,6.378-10.437,7.795s9.664,8.44,15.333,3.994c5.669-4.445,9.605-8.695,9.605-8.695S2730.244,880.581,2724.713,877.469z"
				/>
			<path style="fill:#D43794;" d="M2782.113,803.789c3.792,0.576,17.631,6.926,24.293,17.689
				c6.663,10.763-6.765,27.164-8.508,36.491c-1.742,9.328,1.743,34.134-0.308,36.081c-2.05,1.948-28.394,4.818-46.947-10.763
				c0,0,5.023-16.811,4.203-25.421c-0.82-8.61-1.128-13.223-2.665-17.733c-1.538-4.51-3.28-14.32,0.718-21.151
				C2756.897,812.15,2760.792,800.552,2782.113,803.789z"/>
			<path style="fill:#945223;" d="M2770.289,761.662c0,0,25.937-7.063,30.234,14.571c4.296,21.634-17.184,36.331-17.184,36.331
				L2770.289,761.662z"/>
			<path style="fill:#945223;" d="M2774.913,808.4c0,0-13.161,10.938-12.627,29.879c0,0-13.873-21.965,10.493-38.594L2774.913,808.4
				z"/>
			<path style="fill:#DD67A7;" d="M2799.273,822.828c-8.545,5.833-2.664,15.814,0.888,22.03c3.552,6.216,10.952,16.577,9.917,21.165
				c-1.036,4.588-17.932,23.385-17.932,23.385s4.907,3.108,6.98,6.956c0,0,31.082-18.649,31.082-27.382
				s-13.915-34.248-19.031-41.146C2806.06,820.939,2804.009,819.595,2799.273,822.828z"/>
			<path style="fill:#FBC3B1;" d="M2799.125,896.365c0,0-1.874,3.608-6.98,4.341c-5.106,0.732-7.67-1.611-9.098,0
				c-1.428,1.611-4.797,6.592-6.115,6.152c-1.318-0.439-2.498-8.647-2.019-10.493s4.174-8.586,17.232-6.956
				C2792.145,889.409,2797.881,892.61,2799.125,896.365z"/>
			<path style="fill:#FBC3B1;" d="M2784.956,764.79c-8.824-0.897-17.947-0.897-20.34,11.964c-2.393,12.862-0.598,26.77-0.598,26.77
				s16.601,3.589,22.882-15.703C2793.181,768.529,2784.956,764.79,2784.956,764.79z"/>
			<path style="fill:#FBC3B1;" d="M2773.95,812.564c0,0-0.652-8.714-6.581-13.457c0,0,5.513-10.078,16.777-14.643
				c0,0,4.743,13.872,5.75,20.215C2789.897,804.68,2785.866,811.557,2773.95,812.564z"/>
			<path style="fill:#945223;" d="M2770.289,761.662c0,0-2.126,20.104,16.611,26.159l9.667,3.121
				C2796.567,790.942,2800.235,759.195,2770.289,761.662z"/>
			<path style="fill:#FBC3B1;" d="M2783.339,787.49c0,0,5.17-8.483,8.739-2.323c3.753,6.477-6.527,8.85-8.739,6.859V787.49z"/>
			<path style="fill:#DE549F;" d="M2789.897,804.68c0,0-6.784,6.982-15.947,7.885c0,0,4.556,5.664,4.233,10.264
				c0,0,11.944-8.07,13.962-15.979L2789.897,804.68z"/>
			<path style="fill:#DD67A7;" d="M2773.95,812.564c0,0-4.139,1.628-4.733,6.055c0,0-1.031-4.328,4.261-8.857
				C2773.478,809.762,2773.933,811.314,2773.95,812.564z"/>
		</g>
	</g>
	<g>
		<g>
			<path style="fill:#473212;" d="M1080.609,2129.91c0,0-2.214,10.49,0,14.051c2.214,3.561,10.298,5.967,14.243,9.816
				c3.946,3.85,15.783,13.762,23.578,7.988c7.795-5.774-9.213-16.938-12.209-21.269c-2.996-4.331-5.017-10.586-5.017-10.586
				H1080.609z"/>
			<path style="fill:#473212;" d="M1116.449,2109.637c0,0-1.934,9.165,0,12.276c1.934,3.111,8.997,5.213,12.444,8.576
				c3.447,3.363,13.789,12.024,20.6,6.979c6.811-5.045-8.049-14.799-10.667-18.582s-4.384-9.249-4.384-9.249H1116.449z"/>
			<path style="fill:#18254F;" d="M1033.355,2012.855c0,0-6.624,19.242,5.382,29.719c12.006,10.476,44.921,24.76,44.921,24.76
				s-5.125,7.245-5.15,19.666c-0.025,12.42,3.092,31.879,0.912,43.472c0,0,8.39,7.038,22.875,1.035c0,0,6.825-71.211,2.478-77.421
				c-4.347-6.21-35.896-40.16-35.896-40.16L1033.355,2012.855z"/>
			<path style="fill:#18254F;" d="M1059.183,2017.114c0,0,0.652,13.907,14.125,18.253c13.473,4.346,42.215,13.69,42.215,13.69
				s-2.114,14.772,0,24.335c2.114,9.564,0,37.161,0,37.161s7.764,3.26,19.933,0c0,0,5.867-69.536-1.304-76.489
				c-7.171-6.954-45.084-29.335-45.084-29.335L1059.183,2017.114z"/>
			<polygon style="fill:#404040;" points="1064.496,2020.216 1093.192,2042.574 1094.344,2040.73 1065.244,2018.47 			"/>
			<polygon style="fill:#545554;" points="1094.344,2040.73 1140.375,2022.537 1115.522,2001.392 1065.244,2018.47 			"/>
			<path style="fill:#FBC3B1;" d="M1089.067,1974.61l1.78,4.036c0,0,2.832,16.004,8.664,24.278c0,0-0.224,8.002,1.855,9.223
				c2.079,1.221,10.488,0.949,13.472-1.492c2.984-2.441-4.747-11.664-4.747-11.664s-5.418-18.396-7.795-22.49l-2.241-5.043
				L1089.067,1974.61z"/>
			<path style="fill:#3DBFB8;" d="M1087.817,1927.25c0,0,4.282,0.809,7.23,13.727s6.319,31.874,6.319,31.874
				s-4.914,4.493-12.918,3.51c0,0-7.021-22.607-9.267-31.453C1076.933,1936.062,1080.446,1925.177,1087.817,1927.25z"/>
			<path style="fill:#2EA69F;" d="M1049.414,1924.01c0,0-3.623,7.196-9.28,10.833c-5.657,3.637-14.345,9.294-15.356,18.184
				c-1.01,8.89,10.506,25.458,9.9,36.368c-0.606,10.911-5.253,18.588-3.031,23.235c2.139,4.473,28.05,14.748,55.933-4.845
				c1.997-1.403,2.951-3.874,2.467-6.266c-1.571-7.755-4.884-25.287-4.61-33.945c0.358-11.315,6.629-35.803,2.379-40.325
				C1083.567,1922.727,1058.896,1919.845,1049.414,1924.01z"/>
			<path style="fill:#FBC3B1;" d="M1071.998,1899.207c16.913,0.98,13.667,15.692,12.148,21.513
				c-1.519,5.821-7.846,23.537-18.222,21.26s-13.92-14.731-12.655-21.286C1054.535,1914.14,1054.535,1898.195,1071.998,1899.207z"/>
			<path style="fill:#FBC3B1;" d="M1049.414,1924.01c0,0-2.033,11.526,11.243,14.044l8.574-5.837l-2.051-11.547L1049.414,1924.01z"
				/>
			<path style="fill:#663313;" d="M1056.233,1921.964c0,0,11.678,2.387,21.055,0c9.377-2.387,9.888-8.695,9.718-11.167
				c-0.171-2.472-2.898-14.577-21.652-13.639s-18.157,22.334-15.94,26.851C1049.414,1924.01,1051.801,1924.863,1056.233,1921.964z"
				/>
			<path style="fill:#FBC3B1;" d="M1057.512,1923.328c0,0-0.622-6.223-4.488-4.518c-3.866,1.705-0.256,7.246,2.244,8.439
				L1057.512,1923.328z"/>
			<path style="fill:#FBC3B1;" d="M1034.384,1996.583c0,0,18.923,2.795,34.847,9.937c0,0,17.321,0,19.805,2.018
				c2.484,2.018,3.623,6.676,1.811,9.005c-1.811,2.329-4.039,4.347-5.409,3.881s-2.768-2.083-2.768-2.083
				s-13.273,0.699-15.719-1.792c0,0-43.9-6.373-44.677-10.565c-0.776-4.192-1.863-7.763-1.863-7.763
				S1030.199,1998.941,1034.384,1996.583z"/>
			<path style="fill:#3DBFB8;" d="M1035.049,1947.828c7.5,0,7.792,11.907,6.474,19.977c-1.318,8.069-3.129,28.325-3.129,28.325
				s-11.363,7.74-20.091,4.447c0,0,2.748-33.646,4.395-43.197C1024.345,1947.828,1029.121,1947.828,1035.049,1947.828z"/>
			<polygon style="fill:#636464;" points="1093.192,2042.574 1139.491,2024.143 1158.668,1978.076 1114.164,1994.543 			"/>
		</g>
	</g>
</g>
</svg>
